<mxfile host="app.diagrams.net" agent="Mozilla/5.0 (X11; Ubuntu; Linux x86_64; rv:143.0) Gecko/20100101 Firefox/143.0" version="28.2.7">
  <diagram name="Page-1" id="xHpUhSkFrFZz8Dsrlj0t">
    <mxGraphModel dx="989" dy="579" grid="1" gridSize="10" guides="1" tooltips="1" connect="1" arrows="1" fold="1" page="1" pageScale="1" pageWidth="850" pageHeight="1100" math="0" shadow="0">
      <root>
        <mxCell id="0" />
        <mxCell id="1" parent="0" />
        <mxCell id="mfK_P47M9mGK2-WYYYsb-15" value="" style="edgeStyle=orthogonalEdgeStyle;rounded=0;orthogonalLoop=1;jettySize=auto;html=1;" parent="1" source="mfK_P47M9mGK2-WYYYsb-16" target="mfK_P47M9mGK2-WYYYsb-18" edge="1">
          <mxGeometry relative="1" as="geometry" />
        </mxCell>
        <mxCell id="mfK_P47M9mGK2-WYYYsb-16" value="" style="image;aspect=fixed;perimeter=ellipsePerimeter;html=1;align=center;shadow=0;dashed=0;spacingTop=3;image=img/lib/active_directory/database_server.svg;" parent="1" vertex="1">
          <mxGeometry x="90" y="140" width="57.4" height="70" as="geometry" />
        </mxCell>
        <mxCell id="mfK_P47M9mGK2-WYYYsb-30" value="" style="edgeStyle=orthogonalEdgeStyle;rounded=0;orthogonalLoop=1;jettySize=auto;html=1;entryX=0.5;entryY=0;entryDx=0;entryDy=0;" parent="1" source="mfK_P47M9mGK2-WYYYsb-18" target="4r0VnT63bNikBnsAgSwz-4" edge="1">
          <mxGeometry relative="1" as="geometry">
            <mxPoint x="371" y="244" as="targetPoint" />
            <Array as="points">
              <mxPoint x="350" y="175" />
            </Array>
          </mxGeometry>
        </mxCell>
        <mxCell id="mfK_P47M9mGK2-WYYYsb-18" value="" style="sketch=0;outlineConnect=0;fillColor=#d80073;strokeColor=#A50040;dashed=0;verticalLabelPosition=bottom;verticalAlign=top;align=center;html=1;fontSize=12;fontStyle=0;aspect=fixed;pointerEvents=1;shape=mxgraph.aws4.sagemaker_model;fontColor=#ffffff;" parent="1" vertex="1">
          <mxGeometry x="190" y="136" width="78" height="78" as="geometry" />
        </mxCell>
        <mxCell id="mfK_P47M9mGK2-WYYYsb-19" value="" style="edgeStyle=orthogonalEdgeStyle;rounded=0;orthogonalLoop=1;jettySize=auto;html=1;" parent="1" source="mfK_P47M9mGK2-WYYYsb-20" target="mfK_P47M9mGK2-WYYYsb-22" edge="1">
          <mxGeometry relative="1" as="geometry" />
        </mxCell>
        <mxCell id="mfK_P47M9mGK2-WYYYsb-20" value="" style="image;aspect=fixed;perimeter=ellipsePerimeter;html=1;align=center;shadow=0;dashed=0;spacingTop=3;image=img/lib/active_directory/database_server.svg;" parent="1" vertex="1">
          <mxGeometry x="90" y="254" width="57.4" height="70" as="geometry" />
        </mxCell>
        <mxCell id="mfK_P47M9mGK2-WYYYsb-22" value="" style="sketch=0;outlineConnect=0;fillColor=#60a917;strokeColor=#2D7600;dashed=0;verticalLabelPosition=bottom;verticalAlign=top;align=center;html=1;fontSize=12;fontStyle=0;aspect=fixed;pointerEvents=1;shape=mxgraph.aws4.sagemaker_model;fontColor=#ffffff;" parent="1" vertex="1">
          <mxGeometry x="190" y="250" width="78" height="78" as="geometry" />
        </mxCell>
        <mxCell id="mfK_P47M9mGK2-WYYYsb-32" value="" style="edgeStyle=orthogonalEdgeStyle;rounded=0;orthogonalLoop=1;jettySize=auto;html=1;entryX=0.5;entryY=0;entryDx=0;entryDy=0;" parent="1" source="4r0VnT63bNikBnsAgSwz-6" target="mfK_P47M9mGK2-WYYYsb-31" edge="1">
          <mxGeometry relative="1" as="geometry">
            <mxPoint x="490.0018747458317" y="318" as="sourcePoint" />
            <mxPoint x="627.79" y="455.5" as="targetPoint" />
          </mxGeometry>
        </mxCell>
        <mxCell id="mfK_P47M9mGK2-WYYYsb-31" value="" style="editableCssRules=.*;html=1;shape=image;verticalLabelPosition=bottom;labelBackgroundColor=#ffffff;verticalAlign=top;aspect=fixed;imageAspect=0;image=data:image/svg+xml,PHN2ZyB4bWxucz0iaHR0cDovL3d3dy53My5vcmcvMjAwMC9zdmciIHhtbG5zOnY9Imh0dHBzOi8vdmVjdGEuaW8vbmFubyIgd2lkdGg9IjIwIiBoZWlnaHQ9IjIwIiB2aWV3Qm94PSIwIDAgMjAgMjAiPiYjeGE7CTxzdHlsZSB0eXBlPSJ0ZXh0L2NzcyI+JiN4YTsJLnN0MHtmaWxsOiM0Mjg1ZjQ7fSYjeGE7CTwvc3R5bGU+JiN4YTsJPHBhdGggY2xhc3M9InN0MCIgZD0iTTEzLjMzIDB2Mi4zOGgtMi4xNlYwSDguODN2Mi4zOEg2LjY3VjBINC4yOXYyLjM4YTIgMiAwIDAgMC0xLjkxIDEuOTFIMHYyLjM4aDIuMzh2Mi4xNEgwdjIuMzhoMi4zOHYyLjE0SDB2Mi4zOGgyLjM4YTIgMiAwIDAgMCAxLjkxIDEuOTFWMjBoMi4zOHYtMi4zOGgyLjE2VjIwaDIuMzR2LTIuMzhoMi4xNlYyMGgyLjM4di0yLjM4YTIgMiAwIDAgMCAxLjkxLTEuOTFIMjB2LTIuMzhoLTIuMzh2LTIuMTRIMjBWOC44MWgtMi4zOFY2LjY3SDIwVjQuMjloLTIuMzhhMiAyIDAgMCAwLTEuOTEtMS45MVYwem0xLjUzIDE1LjI0SDUuMTRhLjM4LjM4IDAgMCAxLS4zOC0uMzhWNS4xNGEuMzguMzggMCAwIDEgLjM4LS4zOGg5LjcyYS4zOC4zOCAwIDAgMSAuMzguMzh2OS43MmEuMzguMzggMCAwIDEtLjM4LjM4em0tMi4wNy02LjEybC0zLjUgNC44NnYtMy42M0g3LjIybDMuNjEtNC44MXYzLjU4eiIvPiYjeGE7PC9zdmc+;" parent="1" vertex="1">
          <mxGeometry x="436.5" y="359" width="55" height="55" as="geometry" />
        </mxCell>
        <mxCell id="mfK_P47M9mGK2-WYYYsb-33" value="Coding" style="text;html=1;align=center;verticalAlign=middle;resizable=0;points=[];autosize=1;strokeColor=none;fillColor=none;fontStyle=1" parent="1" vertex="1">
          <mxGeometry x="78.69999999999999" y="214" width="60" height="30" as="geometry" />
        </mxCell>
        <mxCell id="mfK_P47M9mGK2-WYYYsb-34" value="Mathematics" style="text;html=1;align=center;verticalAlign=middle;resizable=0;points=[];autosize=1;strokeColor=none;fillColor=none;fontStyle=1" parent="1" vertex="1">
          <mxGeometry x="72.39999999999998" y="328" width="90" height="30" as="geometry" />
        </mxCell>
        <mxCell id="xYQvsgzNibUxbOxd7htH-13" value="" style="edgeStyle=orthogonalEdgeStyle;rounded=0;orthogonalLoop=1;jettySize=auto;html=1;" parent="1" source="xYQvsgzNibUxbOxd7htH-14" target="xYQvsgzNibUxbOxd7htH-15" edge="1">
          <mxGeometry relative="1" as="geometry" />
        </mxCell>
        <mxCell id="xYQvsgzNibUxbOxd7htH-14" value="" style="image;aspect=fixed;perimeter=ellipsePerimeter;html=1;align=center;shadow=0;dashed=0;spacingTop=3;image=img/lib/active_directory/database_server.svg;" parent="1" vertex="1">
          <mxGeometry x="91.60000000000002" y="359" width="57.4" height="70" as="geometry" />
        </mxCell>
        <mxCell id="xYQvsgzNibUxbOxd7htH-21" value="" style="edgeStyle=orthogonalEdgeStyle;rounded=0;orthogonalLoop=1;jettySize=auto;html=1;entryX=0.5;entryY=1;entryDx=0;entryDy=0;" parent="1" source="xYQvsgzNibUxbOxd7htH-15" target="4r0VnT63bNikBnsAgSwz-4" edge="1">
          <mxGeometry relative="1" as="geometry">
            <mxPoint x="371" y="322" as="targetPoint" />
          </mxGeometry>
        </mxCell>
        <mxCell id="xYQvsgzNibUxbOxd7htH-15" value="" style="sketch=0;outlineConnect=0;fillColor=light-dark(#9141ac, #4a890c);strokeColor=#2D7600;dashed=0;verticalLabelPosition=bottom;verticalAlign=top;align=center;html=1;fontSize=12;fontStyle=0;aspect=fixed;pointerEvents=1;shape=mxgraph.aws4.sagemaker_model;fontColor=#ffffff;" parent="1" vertex="1">
          <mxGeometry x="191.60000000000002" y="355" width="78" height="78" as="geometry" />
        </mxCell>
        <mxCell id="xYQvsgzNibUxbOxd7htH-16" value="&lt;div&gt;Summarization&lt;/div&gt;" style="text;html=1;align=center;verticalAlign=middle;resizable=0;points=[];autosize=1;strokeColor=none;fillColor=none;fontStyle=1" parent="1" vertex="1">
          <mxGeometry x="69" y="433" width="100" height="30" as="geometry" />
        </mxCell>
        <mxCell id="xYQvsgzNibUxbOxd7htH-23" value="" style="endArrow=classic;html=1;rounded=0;" parent="1" edge="1">
          <mxGeometry width="50" height="50" relative="1" as="geometry">
            <mxPoint x="270" y="280" as="sourcePoint" />
            <mxPoint x="310" y="280" as="targetPoint" />
          </mxGeometry>
        </mxCell>
        <mxCell id="4r0VnT63bNikBnsAgSwz-1" value="&lt;b&gt;&lt;i&gt;Finetune&lt;/i&gt;&lt;/b&gt;" style="text;html=1;whiteSpace=wrap;strokeColor=none;fillColor=none;align=center;verticalAlign=middle;rounded=0;" vertex="1" parent="1">
          <mxGeometry x="137.7" y="140" width="60" height="30" as="geometry" />
        </mxCell>
        <mxCell id="4r0VnT63bNikBnsAgSwz-2" value="&lt;b&gt;&lt;i&gt;Finetune&lt;/i&gt;&lt;/b&gt;" style="text;html=1;whiteSpace=wrap;strokeColor=none;fillColor=none;align=center;verticalAlign=middle;rounded=0;" vertex="1" parent="1">
          <mxGeometry x="138.7" y="254" width="60" height="30" as="geometry" />
        </mxCell>
        <mxCell id="4r0VnT63bNikBnsAgSwz-3" value="&lt;b&gt;&lt;i&gt;Finetune&lt;/i&gt;&lt;/b&gt;" style="text;html=1;whiteSpace=wrap;strokeColor=none;fillColor=none;align=center;verticalAlign=middle;rounded=0;" vertex="1" parent="1">
          <mxGeometry x="138.7" y="355" width="60" height="30" as="geometry" />
        </mxCell>
        <mxCell id="4r0VnT63bNikBnsAgSwz-7" value="" style="edgeStyle=orthogonalEdgeStyle;rounded=0;orthogonalLoop=1;jettySize=auto;html=1;" edge="1" parent="1" source="4r0VnT63bNikBnsAgSwz-4" target="4r0VnT63bNikBnsAgSwz-6">
          <mxGeometry relative="1" as="geometry" />
        </mxCell>
        <mxCell id="4r0VnT63bNikBnsAgSwz-4" value="&lt;b&gt;Model merging&lt;/b&gt;" style="ellipse;whiteSpace=wrap;html=1;" vertex="1" parent="1">
          <mxGeometry x="310" y="244" width="80" height="70" as="geometry" />
        </mxCell>
        <mxCell id="4r0VnT63bNikBnsAgSwz-6" value="" style="sketch=0;outlineConnect=0;fillColor=light-dark(#2ec27e, #43303c);strokeColor=#996185;dashed=0;verticalLabelPosition=bottom;verticalAlign=top;align=center;html=1;fontSize=12;fontStyle=0;aspect=fixed;pointerEvents=1;shape=mxgraph.aws4.sagemaker_model;gradientColor=#d5739d;" vertex="1" parent="1">
          <mxGeometry x="425" y="240" width="78" height="78" as="geometry" />
        </mxCell>
        <mxCell id="4r0VnT63bNikBnsAgSwz-8" value="&lt;b&gt;All in one, Multitask Model&lt;/b&gt;" style="text;html=1;whiteSpace=wrap;strokeColor=none;fillColor=none;align=center;verticalAlign=middle;rounded=0;" vertex="1" parent="1">
          <mxGeometry x="413" y="200" width="110" height="30" as="geometry" />
        </mxCell>
        <mxCell id="4r0VnT63bNikBnsAgSwz-9" value="&lt;b&gt;Single GPU&lt;/b&gt;" style="text;html=1;whiteSpace=wrap;strokeColor=none;fillColor=none;align=center;verticalAlign=middle;rounded=0;" vertex="1" parent="1">
          <mxGeometry x="380" y="370" width="60" height="40" as="geometry" />
        </mxCell>
      </root>
    </mxGraphModel>
  </diagram>
</mxfile>
